<?xml version="1.0" encoding="utf-8"?>
<!-- Generator: Adobe Illustrator 22.0.0, SVG Export Plug-In . SVG Version: 6.00 Build 0)  -->
<svg version="1.1" id="Layer_1" xmlns="http://www.w3.org/2000/svg" xmlns:xlink="http://www.w3.org/1999/xlink" x="0px" y="0px"
	 viewBox="0 0 4046 254.9" style="enable-background:new 0 0 4046 254.9;" xml:space="preserve">
<style type="text/css">
	.st0{fill:#4D8382;}
</style>
<g transform="translate(0.000000,275.000000) scale(0.100000,-0.100000)">
	<path class="st0" d="M3128,2690c-94-20-216-69-305-122c-208-125-375-350-439-593c-37-138-39-354-6-490c24-95,112-288,156-340l25-30
		l1,85c0,104,22,242,54,347c17,56,25,110,29,193c3,90,10,133,31,195c100,295,365,488,671,489c122,0,198-19,320-78
		c68-32,110-46,172-54c99-13,210-50,317-103c43-22,81-38,84-35c2,3-14,36-36,73c-146,244-390,415-670,469
		C3429,2716,3235,2713,3128,2690z"/>
	<path class="st0" d="M18410,2211c-322-68-540-283-604-594c-51-244-21-538,75-735c32-67,58-102,122-167c93-93,179-141,311-175
		c195-49,502-32,769,43l77,22v437v438h-335h-335v-150v-150h155h155v-170c0-153-2-171-17-178c-10-4-88-7-173-7c-149,0-157,1-212,28
		c-159,78-238,246-238,505c0,200,44,325,152,433c99,100,232,147,388,135c99-7,180-26,268-62c37-16,67-23,72-18
		c16,17,119,279,112,286c-15,15-192,68-276,83C18753,2236,18521,2234,18410,2211z"/>
	<path class="st0" d="M28954,2215c-209-45-395-187-484-369c-72-147-92-237-98-433c-9-347,60-558,236-725c77-72,163-118,279-149
		c64-18,107-22,238-22c170,0,252,12,380,55l70,23l3,152c1,84-1,153-5,153c-5,0-43-11-87-25c-119-37-264-58-365-53
		c-191,9-305,113-358,325c-24,96-24,344,0,433c43,159,114,258,226,313c61,30,73,32,166,32c108-1,145-10,293-72c46-19,84-34,86-32
		s29,69,60,148c45,112,54,146,44,153c-36,23-176,69-265,87C29254,2234,29051,2236,28954,2215z"/>
	<path class="st0" d="M30792,2193c-24-67-537-1525-558-1586l-23-67h197h197l59,195l59,195l301-2l300-3l29-95c16-52,42-139,59-192
		l30-98h194c107,0,194,3,194,8c0,4-132,381-293,837l-293,830l-221,3l-221,2L30792,2193z M31230,1248c0-5-92-8-205-8s-205,3-205,6
		s36,123,79,267c44,144,90,296,102,337l21,75l104-335C31183,1406,31230,1252,31230,1248z"/>
	<path class="st0" d="M34942,1388c-161-458-292-836-292-840c0-5,87-8,194-8h194l22,73c12,39,38,127,58,194l37,123h301h300l59-195
		l59-195h198h198l-23,63c-13,34-147,412-298,840l-274,777h-220h-221L34942,1388z M35461,1242c-112-1-205-1-207,1c-2,1,32,117,75,257
		s89,294,102,341l24,86l105-341l105-341L35461,1242z"/>
	<path class="st0" d="M39150,1443c-150-428-283-806-296-841l-23-62h198h198l59,195l58,195h301h300l59-195l59-195h194
		c106,0,193,3,193,8c1,4-131,382-292,839l-293,833h-221h-221L39150,1443z M39751,1576c55-175,99-323,99-327c0-5-93-9-206-9
		c-174,0-205,2-201,14c14,35,197,653,198,666c1,9,3,6,6-5S39697,1752,39751,1576z"/>
	<path class="st0" d="M50,1375V540h160h160v488c-1,268-5,548-10,622c-4,74-8,136-7,137s164-280,362-623l359-624h228h228v835v835
		h-161h-161l3-614l4-613l-50,86c-28,47-188,323-355,613l-305,528H278H50V1375z"/>
	<path class="st0" d="M5150,1376V540h185h185v315v315h89h89l196-315l197-315h201c158,0,199,3,195,13c-2,7-111,170-241,362l-236,349
		l48,26c111,61,189,148,228,256c20,53,24,85,24,169c0,256-110,397-365,467c-74,20-107,22-437,26l-358,4V1376z M5797,1886
		c65-20,110-58,134-111c50-109-9-238-127-279c-30-11-96-20-166-23l-118-6v124c0,68-3,169-7,223l-6,99l119-6
		C5691,1904,5768,1895,5797,1886z"/>
	<path class="st0" d="M6970,2060v-150h230h230v-685V540h180h180v685v685h225h225v150v150h-635h-635V2060z"/>
	<path class="st0" d="M8930,1375V540h180h180v355v355h325h325V895V540h180h180v835v835h-180h-180v-325v-325h-325h-325v325v325h-180
		h-180V1375z"/>
	<path class="st0" d="M11140,1375V540h480h480v150v150h-300h-300v210v210h280h280v145v145h-280h-280v180v180h300h300v150v150h-480
		h-480V1375z"/>
	<path class="st0" d="M12880,1376V540h180h180v315v315l60,2c138,4,99,43,320-312l196-315l202-3c111-1,202,0,202,4
		c0,3-108,165-241,361c-132,195-239,356-237,358c2,1,22,12,45,24c75,37,169,135,209,217c32,65,37,85,42,168c14,275-101,435-367,509
		c-69,19-108,21-433,25l-358,4V1376z M13527,1886c100-31,146-92,147-192c0-73-34-140-88-174c-48-29-154-50-258-50h-88v221v222l118-6
		C13422,1904,13498,1895,13527,1886z"/>
	<path class="st0" d="M14890,1375V540h160h160v478c0,262-5,542-10,622c-5,79-8,145-7,146s164-279,361-622l359-624h229h228v835v835
		h-161h-161l4-614l3-614l-48,81c-26,45-186,322-355,614l-307,533h-227h-228V1375z"/>
	<path class="st0" d="M19970,1375V540h185h185v314v313l87,7c48,3,89,3,91-1c1-5,90-147,196-318l193-310l203-3c160-2,201,0,197,10
		c-2,7-111,170-241,362l-236,350l48,26c113,62,196,156,232,265c30,90,25,270-9,358c-61,155-190,244-408,282c-64,11-167,15-404,15
		h-319V1375z M20631,1881c112-42,161-140,128-252c-32-105-116-148-301-157l-118-5v169c0,93-3,193-7,223l-6,54l124-5
		C20542,1903,20590,1896,20631,1881z"/>
	<path class="st0" d="M21980,1375V540h485h485v150v150h-305h-305v210v210h285h285v145v145h-285h-285v180v180h305h305v150v150h-485
		h-485V1375z"/>
	<path class="st0" d="M23730,1375V540h478h479l6,113c4,61,7,129,7,150v37h-305h-305v210v210h280h280v145v145h-280h-280v180v180h300
		h300v150v150h-480h-480V1375z"/>
	<path class="st0" d="M25470,1375V540h165h165v409c0,224-5,501-11,615s-9,209-7,211s163-274,359-613l355-617l232-3l232-2v835v835
		h-165h-165l1-452c0-249,4-527,8-618c5-91,8-166,7-166c0-1-161,275-357,615l-357,616l-231,3l-231,2V1375z"/>
	<path class="st0" d="M32500,1375V540h161h161l-6,567c-4,313-9,595-12,628c-5,60-4,57,356-567l362-628h229h229v835v835h-165h-165
		v-402c0-222,5-497,10-612c5-116,8-211,6-213c-1-2-162,274-357,612l-354,615h-227h-228V1375z"/>
	<path class="st0" d="M36930,1376V540h313c332,0,430,9,557,51c358,118,538,414,517,852c-16,334-155,563-414,684
		c-151,70-196,76-605,80l-368,5V1376z M37663,1882c121-44,203-130,247-259c31-94,40-308,16-414c-30-136-83-223-171-284
		c-87-60-151-77-317-82l-148-5v537v537l158-4C37576,1904,37616,1900,37663,1882z"/>
	<path class="st0" d="M2918,2143c-30-32-67-78-82-102c-32-51-80-171-68-171c5,0,44,9,87,20c159,41,327,21,485-56
		c81-40,109-60,185-138c107-107,165-212,193-345c9-45,20-81,23-81c12,0,90,92,117,139c33,56,72,164,72,199s-73,159-144,243
		c-181,216-466,349-750,349h-63L2918,2143z"/>
	<path class="st0" d="M3560,2191l-34-6l65-38c85-49,200-146,263-222c40-48,68-68,131-99c64-31,98-57,170-130
		c146-147,209-296,208-491c0-121-19-200-76-315c-56-114-186-248-297-304c-58-30-92-57-150-119c-75-80-205-185-267-215
		c-18-9-33-19-33-22c0-13,123-18,218-9c243,23,447,122,619,302c134,139,216,296,255,487c26,125,21,335-12,455
		c-103,380-419,661-810,720C3713,2200,3622,2202,3560,2191z"/>
	<path class="st0" d="M2198,1752c-53-83-103-194-129-292c-20-72-23-110-24-250c0-196,17-274,94-435c57-118,115-198,210-287
		c119-113,243-184,406-234c85-26,101-28,275-28s190,2,275,28c225,69,419,210,542,391c38,57,73,118,73,129c0,3-46-17-102-44
		c-111-53-212-84-321-99c-45-6-97-24-150-50c-118-58-192-75-322-75c-198,0-344,62-491,209c-143,142-204,285-208,485
		c-2,80-9,125-29,190c-36,119-49,199-49,318c-1,56-4,102-7,102S2218,1784,2198,1752z"/>
	<path class="st0" d="M2970,1804c-113-17-125-22-158-77c-94-156-132-289-139-482c-6-162,13-276,66-410c50-125,95-191,139-207
		c49-17,233-17,300,1l52,13l-78,83c-132,139-194,294-195,485c0,193,92,400,230,519l47,40l-28,11C3150,1801,3033,1813,2970,1804z"/>
	<path class="st0" d="M4046,1635c-39-180-90-285-189-391c-184-197-458-273-714-199c-30,9-58,14-60,11c-3-3,5-33,17-66
		c27-73,105-186,157-229c35-29,43-31,114-31c341,0,685,209,845,512c34,67,35,72,24,116c-19,77-78,187-135,249l-53,58L4046,1635z"/>
</g>
</svg>
