<?xml version="1.0" encoding="utf-8"?>
<!-- Generator: Adobe Illustrator 22.0.0, SVG Export Plug-In . SVG Version: 6.00 Build 0)  -->
<svg version="1.1" id="Layer_1" xmlns="http://www.w3.org/2000/svg" xmlns:xlink="http://www.w3.org/1999/xlink" x="0px" y="0px"
	 viewBox="0 0 4379 546" style="enable-background:new 0 0 4379 546;" xml:space="preserve">
<style type="text/css">
	.st0{fill:#4D8382;}
</style>
<g transform="translate(0.000000,546.000000) scale(0.100000,-0.100000)">
	<path class="st0" d="M40,2710V0h21875h21875v2710v2710H21915H40V2710z M43540,2710V260H21920H300v2450v2450h21620h21620V2710z"/>
	<path class="st0" d="M4872,4040c-388-55-701-328-819-715c-25-84-27-103-27-270c0-166,2-187,27-266c36-117,66-185,124-271l48-73
		l6,135c7,136,21,216,58,322c14,41,19,83,20,151c0,105,2,119,38,229c65,205,257,386,478,454c45,14,92,19,190,18c116,0,139-3,210-28
		c44-15,100-39,125-53c28-17,81-33,149-45c129-23,232-57,330-108c41-22,76-38,78-36c8,7-80,145-132,208c-177,215-439,342-725,353
		C4987,4047,4907,4045,4872,4040z"/>
	<path class="st0" d="M20155,3559c-284-36-500-179-611-404c-75-152-88-218-88-450c-1-217,10-295,62-425c79-203,241-348,452-407
		c54-15,103-18,285-18c229,0,335,13,500,63l60,18l3,437l2,437h-335h-335v-150v-150h160h160v-169v-170l-47-8c-27-4-102-8-168-8
		c-114,0-123,2-187,32c-36,17-85,50-108,73c-112,112-167,368-125,585c38,200,159,342,337,396c60,19,87,21,187,17c99-4,131-10,216-40
		c55-19,107-38,115-41c12-6,27,22,69,124c29,72,56,139,58,149c4,14-10,23-69,43C20555,3562,20356,3584,20155,3559z"/>
	<path class="st0" d="M30654,3556c-99-19-137-32-229-79c-159-83-275-225-339-417c-40-120-56-222-56-353c0-383,133-659,375-780
		c108-54,179-69,350-74c175-6,268,6,416,53l79,25v156c0,144-1,155-17,148c-60-23-202-58-288-71c-239-37-388,23-470,189
		c-48,98-65,186-65,345c0,224,49,373,155,470c74,67,143,93,250,93c107-1,169-17,346-94l36-16l58,146c66,167,68,155-34,194
		C31043,3558,30806,3585,30654,3556z"/>
	<path class="st0" d="M1710,2710v-840h165h165v438c0,240-5,520-10,621c-6,101-10,185-8,186c2,2,164-278,362-621l358-624h229h229v835
		v835h-165h-165v-417c1-230,5-506,10-613s8-195,7-197c-2-1-164,277-361,617l-358,620h-229h-229V2710z"/>
	<path class="st0" d="M6820,2710v-840h180h180v320v321l92-3l91-3l197-315l196-315l202-3c111-1,202,0,202,4c0,3-105,161-233,352
		c-129,191-237,352-240,359c-4,7,15,24,50,44c112,62,206,184,232,300c14,59,14,176,0,241c-29,135-105,236-222,293
		c-142,69-262,85-649,85h-278V2710z M7480,3216c88-33,130-95,130-191c0-147-102-215-322-215h-108v216v216l128-4
		C7392,3234,7450,3227,7480,3216z"/>
	<path class="st0" d="M10590,2710v-840h185h185v360v360h325h325v-360v-360h180h180v835v835h-180h-180v-325v-325h-325h-325v330v330
		h-185h-185V2710z"/>
	<path class="st0" d="M12800,2710v-840h485h485v150v150h-305h-305v210v210h285h285v150v150h-285h-285v180v180h305h305v150v150h-485
		h-485V2710z"/>
	<path class="st0" d="M14550,2710v-840h180h180v320v321l91-3l91-3l196-317l197-318h203c112,0,202,4,200,8c-1,4-110,166-240,359
		c-131,194-238,354-238,356s26,20,58,40c180,111,261,280,234,489c-26,208-144,337-357,392c-105,27-233,36-517,36h-278V2710z
		 M15215,3212c94-43,129-99,123-198c-5-85-40-137-116-172c-50-24-72-27-184-30l-128-4v217v217l128-4
		C15142,3235,15174,3230,15215,3212z"/>
	<path class="st0" d="M16550,2710v-840h165h165v408c0,224-5,502-11,616s-8,210-6,212s164-274,359-613l356-618l231-3l231-2v835v835
		h-165h-165v-452c1-249,5-525,9-613c5-88,8-161,6-163c-1-1-163,277-360,618l-359,620h-228h-228V2710z"/>
	<path class="st0" d="M21640,2711v-841h180h180v320v321l92-3l91-3l196-317l196-317l203-1c111,0,202,2,202,6c0,3-108,164-240,359
		s-240,357-240,359s25,18,55,35c166,94,254,260,242,456c-15,245-145,384-412,442c-51,11-161,16-407,20l-338,5V2711z M22300,3216
		c88-33,130-95,130-191c0-147-102-215-322-215h-108v216v216l128-4C22212,3234,22270,3227,22300,3216z"/>
	<path class="st0" d="M23640,2710v-840h485h485v150v150h-300h-300v210v210h280h280v150v150h-280h-280v180v180h300h300v150v150h-485
		h-485V2710z"/>
	<path class="st0" d="M25390,2710v-840h485h485v150v150h-305h-305v210v210h285h285v150v150h-285h-285v180v180h305h305v150v150h-485
		h-485V2710z"/>
	<path class="st0" d="M27140,2710v-840h160h160v478c0,262-5,542-10,622c-5,79-8,145-7,147c2,1,165-279,363-622l359-625h228h227v835
		v835h-161h-161l4-613l3-612l-356,615l-355,615l-227,3l-227,2V2710z"/>
	<path class="st0" d="M32176,2733c-157-450-289-828-292-840l-6-23h194h195l60,198l61,197l298,3l299,2l60-200l60-200h199
		c185,0,198,1,191,18c-8,20-538,1521-567,1605l-20,57h-222h-223L32176,2733z M32796,2905l102-330l-206-3c-113-1-206-1-208,0
		c-1,2,42,151,97,332c54,182,99,337,100,345C32682,3272,32682,3273,32796,2905z"/>
	<path class="st0" d="M34160,2710v-840h160h160l-1,508c0,279-4,561-9,627c-4,66-7,121-6,121c0,1,163-280,361-625l361-626l232-3
		l232-2v835v835h-166h-166l3-610l4-609l-22,37c-12,20-172,296-355,614l-333,578h-227h-228V2710z"/>
	<path class="st0" d="M36605,2723c-159-454-291-832-293-839c-3-11,33-14,192-14h195l35,113c19,61,46,151,61,200l26,87h298h298
		l60-197l61-198l197-3l196-2l-7,22c-4,13-136,390-294,838l-287,815l-224,2l-224,3L36605,2723z M37225,2915c54-176,100-326,103-332
		c3-10-42-13-205-13h-210l98,327c55,180,99,334,99,342C37110,3280,37135,3209,37225,2915z"/>
	<path class="st0" d="M38590,2711v-841h288c158,0,326,5,372,10c377,46,612,232,702,556c19,69,22,104,22,279c1,180-1,208-22,280
		c-84,291-274,463-587,532c-52,11-158,16-422,20l-353,5V2711z M39309,3221c171-53,264-181,292-400c26-208-25-411-129-517
		c-88-88-186-122-379-131l-133-6v543v543l143-6C39204,3243,39264,3235,39309,3221z"/>
	<path class="st0" d="M40792,2717c-160-457-292-835-292-839c0-5,87-8,194-8h195l26,88c15,48,42,138,61,200l35,112h298h297l60-197
		l60-198l198-3c157-2,197,0,193,10c-2,7-133,378-290,823c-157,446-289,818-292,828c-7,15-27,17-229,17h-221L40792,2717z M41410,2928
		c53-172,100-323,104-335l7-23h-210h-210l12,39c7,21,53,174,102,339c50,165,92,298,94,296S41357,3100,41410,2928z"/>
	<path class="st0" d="M8640,3390v-150h225h225v-685v-685h185h185v685v685h225h225v150v150h-635h-635V3390z"/>
	<path class="st0" d="M4596,3490c-25-24-64-70-85-103c-37-56-88-173-80-182c2-2,36,6,74,17c90,26,250,28,348,5
		c137-34,285-123,372-224c80-94,144-225,164-337c6-33,13-61,15-63s26,22,54,53c60,67,104,147,128,231l17,62l-28,53
		c-101,194-260,345-459,439c-125,58-214,80-352,86l-122,6L4596,3490z"/>
	<path class="st0" d="M5200,3524c1-5,38-31,83-59c54-33,119-87,192-160c78-78,127-119,168-139c79-38,171-114,234-191
		c279-347,162-863-241-1067c-40-20-84-56-137-112c-85-90-152-145-241-199c-32-19-55-37-51-41c3-3,56-6,117-6c357,1,671,177,853,480
		c100,165,138,312,137,520c-1,123-5,160-28,245c-89,337-350,602-691,701c-73,21-118,27-242,31C5267,3530,5200,3529,5200,3524z"/>
	<path class="st0" d="M3874,3100c-217-314-224-767-15-1091c269-420,809-576,1258-364c50,24,113,58,140,76c63,43,175,150,228,219
		c45,59,111,170,101,170c-4,0-35-14-69-31c-122-62-308-118-394-119c-17,0-53-13-80-30c-89-55-185-82-316-87c-143-7-223,10-347,70
		c-117,57-248,185-308,303c-53,104-82,222-82,339c0,65-6,107-20,148c-33,92-51,193-58,322l-7,120L3874,3100z"/>
	<path class="st0" d="M4570,3128c-60-13-71-25-123-127c-82-159-111-281-110-461c1-192,44-355,132-501c34-56,44-66,82-77
		c57-17,210-18,282-2c31,7,57,15,57,18c0,2-33,39-73,82c-267,284-258,712,20,986c31,30,53,57,50,60c-3,4-32,13-64,20
		C4757,3142,4636,3143,4570,3128z"/>
	<path class="st0" d="M5698,2909c-28-133-86-238-193-345c-76-78-104-98-185-138c-53-26-128-53-170-62c-97-21-250-14-340,15
		c-36,11-66,21-67,21c-6,0,16-59,48-127c28-59,57-100,105-149l66-67l102,6c236,15,453,105,619,256c69,64,167,192,206,270
		c28,54,28,57,15,110c-19,74-78,183-132,242c-24,27-47,49-51,49C5718,2990,5707,2954,5698,2909z"/>
</g>
</svg>
