<?xml version="1.0" standalone="no"?>
<!DOCTYPE svg PUBLIC "-//W3C//DTD SVG 20010904//EN"
 "http://www.w3.org/TR/2001/REC-SVG-20010904/DTD/svg10.dtd">
<svg version="1.0" xmlns="http://www.w3.org/2000/svg"
 width="646.000000pt" height="646.000000pt" viewBox="0 0 646.000000 646.000000"
 preserveAspectRatio="xMidYMid meet">
<metadata>
Created by potrace 1.15, written by Peter Selinger 2001-2017
</metadata>
<g transform="translate(0.000000,646.000000) scale(0.100000,-0.100000)"
fill="#000000" stroke="none">
<path d="M2910 6424 c-526 -72 -1012 -314 -1384 -690 -187 -189 -325 -383
-446 -625 -255 -515 -315 -1107 -169 -1676 39 -154 87 -282 169 -448 65 -134
221 -385 239 -385 5 0 6 58 3 129 -12 307 49 684 160 986 l43 117 -9 106 c-10
125 4 318 34 460 74 349 271 690 535 924 233 206 503 342 815 410 92 19 133
22 330 22 197 0 238 -3 330 -22 201 -44 404 -123 555 -216 65 -40 78 -45 175
-55 352 -40 762 -173 1029 -335 32 -20 62 -36 65 -36 12 0 -86 180 -151 278
-391 585 -1002 966 -1696 1057 -148 19 -481 18 -627 -1z"/>
<path d="M2298 5147 c-140 -120 -274 -290 -358 -456 -42 -84 -100 -242 -100
-272 0 -18 2 -18 36 -4 121 50 340 93 519 102 210 9 397 -18 609 -88 587 -195
1028 -697 1145 -1303 12 -59 21 -118 21 -132 0 -39 20 -29 91 45 183 190 309
418 369 668 l23 91 -57 109 c-293 554 -782 974 -1363 1168 -229 77 -434 113
-693 122 l-175 6 -67 -56z"/>
<path d="M3790 5194 c-102 -9 -102 -9 36 -92 268 -161 487 -348 689 -587 90
-107 97 -112 173 -143 351 -145 683 -469 858 -837 104 -219 153 -423 161 -675
10 -313 -44 -556 -183 -834 -171 -341 -477 -632 -830 -790 -87 -39 -94 -45
-170 -136 -200 -243 -464 -464 -744 -626 l-85 -49 45 -7 c88 -14 440 -10 565
7 518 69 975 287 1347 643 384 368 614 803 709 1339 27 150 37 481 20 644 -56
544 -300 1058 -686 1444 -367 367 -828 600 -1345 680 -101 16 -461 28 -560 19z"/>
<path d="M512 4197 c-226 -303 -391 -740 -433 -1146 -17 -163 -7 -494 20 -644
95 -536 325 -971 709 -1339 373 -356 829 -574 1347 -643 159 -21 461 -21 620
0 687 92 1287 461 1675 1030 67 98 176 292 169 300 -3 2 -45 -19 -94 -47 -278
-158 -633 -273 -965 -314 -94 -11 -146 -23 -170 -37 -132 -76 -178 -100 -261
-136 -414 -176 -896 -178 -1318 -5 -369 151 -697 455 -875 810 -137 274 -189
506 -185 834 2 179 1 187 -24 249 -53 129 -105 323 -138 511 -16 94 -23 189
-28 380 l-6 255 -43 -58z"/>
<path d="M2285 4234 c-48 -7 -177 -34 -218 -45 -34 -9 -46 -22 -98 -102 -125
-192 -235 -448 -295 -683 -57 -227 -69 -330 -69 -604 0 -297 18 -434 91 -682
56 -193 172 -446 281 -614 44 -68 52 -76 98 -89 157 -47 355 -63 529 -46 112
12 162 22 284 57 l54 16 -106 100 c-121 114 -199 206 -278 328 -284 436 -354
974 -193 1467 92 281 290 578 504 758 39 33 71 62 71 66 0 6 -93 32 -210 60
-46 11 -391 21 -445 13z"/>
<path d="M4935 3833 c-13 -92 -47 -239 -77 -328 -41 -126 -146 -332 -225 -445
-98 -138 -302 -339 -437 -429 -459 -305 -983 -381 -1493 -216 -57 18 -103 29
-103 25 0 -23 57 -177 96 -259 82 -175 205 -337 351 -463 l78 -68 125 0 c637
0 1259 267 1707 734 170 177 311 373 413 577 50 98 50 117 0 274 -69 214 -177
398 -327 555 -47 50 -89 90 -94 90 -4 0 -11 -21 -14 -47z"/>
</g>
</svg>
